<svg width="59" height="59" viewBox="0 0 59 59" fill="none" xmlns="http://www.w3.org/2000/svg">
<g opacity="0.8">
<path d="M18.9355 25.606H32.9355C33.7641 25.606 34.4355 24.9341 34.4355 24.106C34.4355 23.2774 33.7641 22.606 32.9355 22.606H18.9355C18.107 22.606 17.4355 23.2774 17.4355 24.106C17.4355 24.9341 18.107 25.606 18.9355 25.606Z" fill="#00B2FF"/>
<path d="M12.8848 31.8652H39.0151C39.8436 31.8652 40.5151 31.1938 40.5151 30.3652C40.5151 29.5371 39.8436 28.8652 39.0151 28.8652H12.8848C12.0562 28.8652 11.3848 29.5371 11.3848 30.3652C11.3848 31.1938 12.0562 31.8652 12.8848 31.8652Z" fill="#00B2FF" fill-opacity="0.8"/>
<path d="M39.0151 35.1152H12.8848C12.0562 35.1152 11.3848 35.7871 11.3848 36.6152C11.3848 37.4438 12.0562 38.1152 12.8848 38.1152H39.0151C39.8436 38.1152 40.5151 37.4438 40.5151 36.6152C40.5151 35.7871 39.8436 35.1152 39.0151 35.1152Z" fill="#00B2FF" fill-opacity="0.5"/>
<path d="M32.9668 41.376H18.9668C18.1387 41.376 17.4668 42.0474 17.4668 42.876C17.4668 43.7041 18.1387 44.376 18.9668 44.376H32.9668C33.7954 44.376 34.4668 43.7041 34.4668 42.876C34.4668 42.0474 33.7954 41.376 32.9668 41.376Z" fill="#00B2FF" fill-opacity="0.3"/>
<path d="M58.8354 46.6652L53.0354 34.6058C55.1899 30.9196 56.2756 26.7062 56.1712 22.4378C56.0667 18.1694 54.7766 14.0141 52.4444 10.4378C50.1123 6.86095 46.8311 4.00427 42.9672 2.18735C39.1033 0.369983 34.8105 -0.335845 30.5683 0.148497C26.3264 0.63332 22.3027 2.28873 18.9489 4.93067C15.5944 7.57215 13.0414 11.0954 11.5761 15.1056C7.21404 18.5382 4.24033 23.4324 3.20376 28.8851C2.16715 34.3382 3.13769 39.982 5.93587 44.7754L0.135874 56.8348C-0.125291 57.408 -0.00296072 58.083 0.442571 58.528C0.887656 58.9736 1.56266 59.0959 2.13583 58.8347L14.1953 53.0347C17.8118 55.1472 21.9363 56.2321 26.1244 56.1722C30.3124 56.1128 34.4043 54.9106 37.9587 52.6959C41.5132 50.4811 44.3957 47.3374 46.2948 43.6048L56.835 48.6646C57.4082 48.9257 58.0832 48.8034 58.5283 48.3583C58.9738 47.9128 59.0961 47.2378 58.835 46.6646L58.8354 46.6652ZM25.8354 53.175V53.1755C22.0448 53.1822 18.3319 52.1027 15.1354 50.0652C14.6961 49.7875 14.1457 49.7536 13.6756 49.9754L4.73542 54.2754L9.03541 45.3352C9.25729 44.8687 9.22291 44.3209 8.94524 43.8852C6.56889 40.1369 5.50638 35.7044 5.92558 31.2863C6.34478 26.868 8.22158 22.7144 11.2609 19.4806C14.3002 16.2468 18.3288 14.1145 22.7123 13.4212C27.0957 12.7283 31.5856 13.5127 35.4746 15.652C39.3634 17.7909 42.4304 21.1628 44.1924 25.2359C45.9545 29.3096 46.3112 33.8533 45.2072 38.1525C44.1027 42.4511 41.6001 46.2605 38.0929 48.9806C34.5857 51.7002 30.2737 53.1766 25.8357 53.1766L25.8354 53.175ZM47.4857 40.855C49.5084 35.1536 49.204 28.8847 46.637 23.4059C44.0705 17.9277 39.449 13.6808 33.7742 11.5864C28.0988 9.49181 21.8268 9.7173 16.3159 12.2146C19.166 7.73914 23.6766 4.57891 28.8565 3.42931C34.0359 2.27971 39.4605 3.23511 43.9365 6.08462C48.4125 8.93413 51.5721 13.4453 52.7217 18.6252C53.8713 23.8046 52.9164 29.2292 50.0664 33.7052C49.7923 34.1463 49.7619 34.6967 49.9865 35.165L54.2865 44.165L47.4857 40.855Z" fill="url(#paint0_linear_175_131)"/>
</g>
<defs>
<linearGradient id="paint0_linear_175_131" x1="29.4854" y1="0" x2="29.4854" y2="58.9706" gradientUnits="userSpaceOnUse">
<stop stop-color="#00B2FF"/>
<stop offset="1" stop-color="#00B2FF" stop-opacity="0.18"/>
</linearGradient>
</defs>
</svg>
