<svg width="256" height="256" viewBox="0 0 256 256" fill="none" xmlns="http://www.w3.org/2000/svg">
<path d="M129.246 0C166.096 0.310038 198.635 14.4547 221.52 37.7988C223.685 40.0137 225.765 42.3088 227.755 44.6787C228.35 45.3885 228.94 46.1083 229.52 46.8281C232.033 49.9757 234.386 53.2483 236.57 56.6328V56.6377C237.705 58.3926 238.795 60.1879 239.84 62.0078V62.0127C240.23 62.6926 240.621 63.3774 241.001 64.0723V64.0781C242.53 66.8729 243.95 69.7431 245.26 72.6729V72.6777C245.64 73.5325 246.016 74.3872 246.376 75.252V75.2568C246.731 76.0968 247.076 76.937 247.411 77.792C247.796 78.7718 248.165 79.762 248.525 80.7568V80.7617C248.87 81.6966 249.195 82.6419 249.515 83.5918V83.5967C249.53 83.6415 249.545 83.6817 249.56 83.7266C249.885 84.7065 250.2 85.6974 250.505 86.6924V86.6973C250.835 87.7771 251.151 88.8671 251.451 89.9619C251.946 91.7618 252.411 93.582 252.826 95.4219V95.4268H252.831C252.876 95.6217 252.911 95.8216 252.956 96.0215V96.0264C253.406 98.0512 253.806 100.101 254.161 102.171V102.177C254.491 104.107 254.78 106.057 255.02 108.021V108.026L255.065 108.411C255.08 108.541 255.09 108.666 255.105 108.796V108.801L255.15 109.181V109.187C255.605 113.181 255.88 117.251 255.965 121.386V121.4C255.985 122.32 256.001 123.246 256.001 124.176C256.001 125.101 255.985 126.025 255.965 126.945C255.755 137.275 254.365 147.2 251.925 156.619C250.625 161.629 249.03 166.494 247.15 171.199C245.455 175.449 243.525 179.563 241.385 183.538C241.005 184.248 240.62 184.948 240.225 185.648C237.076 191.232 233.481 196.552 229.475 201.558C223.795 208.652 217.321 215.078 210.166 220.737C208.996 221.662 207.805 222.562 206.595 223.447C204.495 224.987 202.35 226.467 200.145 227.877C198.565 228.887 196.96 229.857 195.331 230.802C186.501 235.902 176.93 239.987 166.775 242.927C165.69 243.242 164.6 243.541 163.505 243.831C163.391 243.861 163.276 243.886 163.161 243.916C157.206 245.461 151.06 246.616 144.755 247.356C143.515 247.501 142.265 247.631 141.015 247.741C138.545 247.966 136.051 248.121 133.531 248.216L132.286 248.261C130.866 248.306 129.436 248.331 128.001 248.331C127.451 248.331 126.9 248.326 126.35 248.321V248.301H125.215C124.73 248.291 124.25 248.282 123.77 248.267V248.261H123.501C123.161 248.251 122.82 248.237 122.48 248.227V248.216H122.281L121.621 248.187V248.171H121.281L120.76 248.146V248.131H120.416L119.941 248.106V248.086H119.635L119.081 248.056V248.046H118.925C118.53 248.021 118.141 247.991 117.751 247.966V247.956H117.656L117.23 247.926V247.916H117.076L116.715 247.886V247.871H116.52L116.201 247.846V247.831H115.996L115.685 247.801V247.786H115.496L115.166 247.756V247.741H115.015L114.651 247.711V247.701H114.55L114.18 247.666V247.656H114.1L113.661 247.616L113.276 247.576V247.571H113.246L112.93 247.536V247.526H112.836L112.545 247.496V247.486H112.435L112.201 247.461V247.441H112.05L111.816 247.416V247.401H111.67L111.425 247.371V247.356H111.3L111.081 247.331V247.312H110.941L110.696 247.286V247.271H110.586L110.35 247.241V247.227H110.241L109.965 247.191V247.187H109.901L109.621 247.146V247.142H109.566C109.256 247.102 108.94 247.062 108.63 247.017V247.011H108.6L108.331 246.977V246.971H108.291L108.071 246.937V246.926H107.986L107.77 246.896V246.881H107.685L107.47 246.852V246.841H107.39L107.211 246.816V246.796H107.1L106.911 246.771V246.756H106.81L106.656 246.731V246.711H106.526L106.35 246.687V246.666H106.246L106.05 246.636V246.626H105.97L105.791 246.596V246.581H105.701L105.491 246.551V246.541H105.43L105.236 246.506V246.496H105.166L104.93 246.456V246.451H104.901L103.901 246.286V246.281H103.88L103.685 246.246V246.236H103.635L103.425 246.201V246.196H103.39L103.211 246.166V246.151H103.145L102.996 246.126V246.111H102.906L102.741 246.081V246.066H102.67L102.526 246.041V246.021H102.435L102.265 245.991V245.981H102.201L102.05 245.951V245.937H101.97L101.836 245.911V245.896H101.741L101.581 245.861V245.852H101.515L101.366 245.821V245.807H101.291L101.151 245.781V245.767H101.066L100.89 245.731V245.722H100.845L100.675 245.687V245.682H100.626L100.416 245.636H100.411L100.201 245.597V245.591H100.196L99.9859 245.551H99.981L99.7701 245.506L99.3853 245.426V245.421H99.3502L99.1705 245.381V245.376H99.1451L98.9556 245.336H98.941L98.7857 245.301V245.291H98.7359L98.5709 245.256V245.251H98.5357L98.3951 245.222V245.206H98.3355L98.1803 245.171V245.161H98.1304L98.0103 245.137V245.121H97.9351L97.7955 245.091V245.076H97.7408L97.6207 245.051V245.036H97.5455L97.4058 245.001V244.991H97.3502L97.2359 244.966V244.946H97.1558L97.0201 244.916V244.906H96.9654L96.8453 244.876V244.861H96.776L96.6304 244.831V244.821H96.5904L96.4605 244.791V244.776H96.401L96.2457 244.741V244.731H96.2154L96.0758 244.701V244.691H96.0308L95.8609 244.651V244.646H95.8453C95.6054 244.592 95.3655 244.532 95.1256 244.477H95.1207L94.9556 244.437V244.432H94.9459L94.7857 244.392H94.7652L94.6109 244.352V244.347H94.5904L94.441 244.312V244.301H94.4156L94.2652 244.267V244.262H94.2408L94.0953 244.227V244.216H94.066L93.9254 244.182V244.176H93.8951L93.7506 244.137V244.131H93.7203L93.6207 244.106V244.086H93.5504L93.4508 244.062V244.046H93.3804L93.2808 244.017V244.001H93.2105L93.106 243.977V243.961H93.0455L92.9351 243.932V243.916H92.8804L92.7603 243.887V243.871H92.7105L92.5904 243.841V243.831H92.5455L92.4205 243.796V243.786H92.3804L92.2457 243.751V243.746H92.2203L92.0758 243.706V243.701H92.0553L91.9459 243.671V243.656H91.8951L91.776 243.626V243.616H91.7359L91.6002 243.581V243.571H91.5709L91.4303 243.531H91.4107L91.2554 243.486L90.9459 243.401C88.6709 242.796 86.2403 242.956 84.0953 243.911L75.606 247.656L58.691 255.111C58.5661 255.166 58.4408 255.221 58.316 255.271C58.201 255.316 58.0852 255.356 57.9752 255.396H57.9703V255.4L57.8502 255.44H57.8404V255.446C57.8055 255.456 57.7651 255.471 57.7252 255.486H57.7105C57.6706 255.501 57.6303 255.515 57.5904 255.525H57.5855V255.531C57.2607 255.631 56.9309 255.716 56.606 255.786H56.5953C56.5254 255.801 56.4552 255.816 56.3853 255.826H56.3804V255.831C56.2056 255.861 56.0308 255.891 55.856 255.916H55.8209C54.9509 256.031 54.0857 256.026 53.2408 255.916C52.2059 255.781 51.2059 255.486 50.276 255.056H50.2711C50.1011 254.971 49.9254 254.886 49.7554 254.796H49.7506C49.6256 254.726 49.4956 254.656 49.3707 254.581H49.3658C49.2959 254.541 49.2257 254.496 49.1558 254.451C48.7009 254.171 48.2708 253.856 47.8658 253.506C47.3958 253.106 46.9658 252.661 46.5758 252.176V252.171H46.5709C46.1859 251.696 45.8405 251.176 45.5455 250.631V250.626H45.5406C45.4357 250.431 45.3357 250.231 45.2408 250.026V250.021C45.0558 249.622 44.9011 249.211 44.7711 248.781V248.776H44.7652C44.7352 248.681 44.7102 248.581 44.6803 248.486V248.477C44.6353 248.307 44.5903 248.131 44.5553 247.961V247.956C44.5403 247.891 44.5253 247.821 44.5103 247.751V247.741C44.4753 247.576 44.4504 247.411 44.4254 247.241V247.227H44.4205C44.4055 247.122 44.3954 247.011 44.3804 246.906V246.881C44.3605 246.731 44.3504 246.581 44.3404 246.426V246.366H44.3355L44.3209 246.057L44.2955 245.251L43.8209 229.941L43.6158 223.277C43.5508 220.458 42.2708 217.832 40.191 215.978C39.9961 215.803 39.801 215.627 39.606 215.447L39.566 215.412V215.402H39.5611C39.4211 215.277 39.2753 215.148 39.1353 215.018H39.1304L39.0904 214.982V214.973H39.0855L39.0504 214.942V214.933H39.0357L38.5758 214.502L38.5308 214.462V214.457L38.4908 214.422V214.417H38.481C37.996 213.962 37.511 213.502 37.026 213.042V213.037L36.9859 213.002V212.997H36.981L36.941 212.957V212.952H36.9361L36.901 212.917V212.912H36.8902L36.856 212.877V212.867H36.8453L36.8111 212.837V212.822H36.8004L36.7711 212.798V212.782H36.7554C35.7101 211.769 34.6831 210.738 33.6754 209.688H33.6705L33.6304 209.643C33.3855 209.388 33.1409 209.132 32.901 208.872V208.867H32.8961L32.856 208.827L32.816 208.782H32.8111L32.3404 208.282V208.268H32.3258L32.2955 208.232V208.223H32.2857L32.2554 208.188V208.178H32.2506L32.2105 208.143V208.138C32.0506 207.968 31.8958 207.798 31.7359 207.628V207.623L31.6959 207.577C31.4209 207.277 31.1505 206.978 30.8756 206.678C30.7756 206.563 30.6757 206.453 30.5758 206.343V206.333H30.566L30.5357 206.293V206.288H30.5308L30.4908 206.248V206.242L30.2359 205.958V205.942H30.2203L30.191 205.907V205.902H30.1861L29.8902 205.562V205.558H29.8853C29.7854 205.443 29.6855 205.333 29.5855 205.218V205.213L29.0308 204.567H29.026C28.956 204.482 28.886 204.397 28.816 204.317V204.308H28.8111L28.5553 204.013V204.008H28.5504C28.4804 203.928 28.4104 203.843 28.3404 203.758V203.753H28.3355L28.2955 203.708L28.1256 203.503V203.493H28.1158L28.0806 203.453V203.447C28.0258 203.382 27.9656 203.313 27.9107 203.243V203.232H27.9058L27.6959 202.982V202.978H27.691C27.3761 202.593 27.0605 202.208 26.7506 201.823V201.817H26.7457L26.5758 201.607V201.603H26.5709C26.5159 201.533 26.4608 201.462 26.4058 201.397V201.388H26.3961L26.3609 201.343L26.2359 201.183V201.173H26.2262L26.0611 200.963V200.958H26.0553L25.8902 200.743H25.8853C25.7303 200.543 25.5706 200.343 25.4156 200.138C25.2707 199.953 25.1308 199.768 24.9859 199.578L24.856 199.413V199.408L24.731 199.243V199.232H24.7262L24.6012 199.073V199.062H24.5904L24.4703 198.903V198.893H24.4605L24.3404 198.732V198.718H24.3306L24.3004 198.678H24.2955L24.2105 198.562V198.548H24.2008L24.0855 198.388V198.378H24.0758C23.7458 197.933 23.4153 197.488 23.0953 197.043L22.8804 196.748V196.743H22.8756C22.8056 196.643 22.7356 196.548 22.6656 196.448V196.438H22.6607C22.6158 196.383 22.5757 196.327 22.5357 196.268L22.4508 196.148V196.138H22.441L22.2359 195.843V195.838H22.231C22.1311 195.698 22.0311 195.558 21.9361 195.413V195.408H21.9303C21.8603 195.308 21.7853 195.208 21.7203 195.108H21.7154C21.5604 194.878 21.4007 194.648 21.2457 194.418L21.1607 194.293V194.288H21.1558L21.0709 194.168V194.163H21.066L20.9859 194.043V194.033H20.981L20.901 193.918V193.903H20.8902C20.4602 193.263 20.0309 192.618 19.6109 191.973V191.968L19.3111 191.503V191.493H19.3053L19.2262 191.373V191.368H19.2203L19.1353 191.238C19.0953 191.168 19.0503 191.103 19.0103 191.038V191.023H19.0006L18.9205 190.903V190.894H18.9156L18.8355 190.763C18.7956 190.693 18.7505 190.628 18.7056 190.559V190.548H18.7008L18.6207 190.423V190.418L18.4058 190.078V190.073C18.1758 189.703 17.9453 189.333 17.7203 188.958L17.5904 188.748V188.743H17.5855C17.5455 188.673 17.5005 188.603 17.4605 188.533V188.528H17.4556C17.4156 188.458 17.3706 188.388 17.3306 188.323V188.313H17.3258C17.2858 188.244 17.2457 188.173 17.2008 188.104V188.099L17.0758 187.883H17.0709C16.826 187.468 16.5853 187.054 16.3404 186.634C16.2854 186.534 16.2255 186.433 16.1705 186.333L15.9957 186.033L15.9556 185.958V185.948H15.9508C15.9108 185.878 15.8657 185.803 15.8258 185.733L15.7808 185.658V185.648H15.776L15.6109 185.349V185.344L15.566 185.273V185.259H15.5611L15.3961 184.964V184.958C15.3211 184.828 15.2502 184.703 15.1803 184.573V184.568C15.0054 184.259 14.8355 183.944 14.6656 183.629V183.623L14.6207 183.549V183.538H14.6158C14.5358 183.383 14.4458 183.223 14.3658 183.068L14.3209 182.988V182.979H14.316L14.2808 182.908V182.894H14.2711L14.2359 182.828V182.809H14.2262C14.1262 182.624 14.0311 182.433 13.9361 182.248L13.8902 182.169V182.163L13.8512 182.083V182.078H13.8453C13.5554 181.518 13.2708 180.963 12.9859 180.398L12.9459 180.313L12.901 180.229L12.8609 180.144H12.856L12.816 180.059V180.054L12.7711 179.974V179.969L12.731 179.884C12.3961 179.204 12.0657 178.519 11.7408 177.829V177.818H11.7359L11.6959 177.738V177.733C11.6259 177.583 11.551 177.433 11.481 177.283V177.259H11.4703L11.441 177.193V177.174H11.4303L11.3961 177.099V177.089H11.3902L11.356 177.004C11.2961 176.879 11.2402 176.754 11.1803 176.624V176.613H11.1754L11.1402 176.528C11.0653 176.373 10.9953 176.218 10.9254 176.059H10.9205C10.8056 175.799 10.6906 175.544 10.5806 175.289V175.284H10.5758C10.5208 175.154 10.4658 175.023 10.4058 174.898V174.894C10.3658 174.799 10.3208 174.698 10.2808 174.604V174.594H10.276C10.236 174.499 10.191 174.404 10.151 174.309V174.294H10.1402L10.106 174.209C10.0761 174.139 10.051 174.074 10.0211 174.009V173.994H10.0152C9.97023 173.894 9.9302 173.799 9.89021 173.704V173.688H9.88533L9.76033 173.398V173.389C9.71538 173.289 9.6753 173.194 9.63533 173.094V173.089H9.63045C9.59047 172.989 9.54543 172.889 9.50545 172.789C9.34546 172.404 9.18583 172.014 9.03084 171.629L8.94588 171.419V171.414H8.94099L8.86092 171.204V171.199H8.85603C8.83109 171.129 8.80092 171.054 8.77596 170.984H8.77107L8.17049 169.438V169.434C8.12555 169.319 8.08556 169.209 8.0406 169.094V169.089L7.91072 168.754V168.744L7.87068 168.639V168.619H7.86092L7.78572 168.414V168.404H7.78084L7.7408 168.299V168.274H7.73103C7.70603 168.204 7.68084 168.129 7.65584 168.059L7.61092 167.944V167.929H7.60603L7.48592 167.584L7.44099 167.469V167.454H7.43611C7.30611 167.099 7.18025 166.739 7.05525 166.384V166.379H7.05037L7.01033 166.259V166.249L6.96541 166.134V166.124L6.92537 166.009V165.994H6.92049C6.83553 165.749 6.75056 165.509 6.6656 165.27V165.264L6.62556 165.139V165.134H6.62068L6.58064 165.009V165.004L6.53572 164.879V164.874L6.49568 164.749V164.744L6.45076 164.619L6.41072 164.489H6.40584L6.3658 164.359L6.32088 164.234V164.229L6.28084 164.104L6.23592 163.975L6.19588 163.844H6.19099C6.10603 163.574 6.02108 163.304 5.93611 163.039V163.024H5.93025L5.89021 162.904V162.899C5.84521 162.764 5.80521 162.629 5.76521 162.494V162.469H5.75545L5.72029 162.359V162.339H5.71053L5.67537 162.225V162.209H5.67049L5.63533 162.084V162.079H5.63045C5.60549 161.989 5.57543 161.895 5.54549 161.805V161.779H5.5406L5.50545 161.659V161.649H5.50056C5.44561 161.465 5.39059 161.28 5.33064 161.095V161.089C5.2007 160.654 5.07083 160.214 4.94588 159.774V159.76H4.94099L4.86092 159.479V159.459H4.85603L4.81599 159.329L4.77596 159.18V159.154H4.76521L4.73103 159.029C4.71603 158.974 4.70111 158.924 4.68611 158.874V158.854H4.68025C4.65528 158.76 4.6311 158.659 4.60115 158.56V158.555L4.56111 158.404V158.379H4.55037L4.47029 158.089V158.079C4.37036 157.709 4.27042 157.34 4.17049 156.965L4.13045 156.805V156.789H4.12556L4.08553 156.635V156.619H4.08064L4.0406 156.47V156.449H4.03572L4.00056 156.305V156.274H3.9908L3.95564 156.14V156.104H3.94588L3.9156 155.975L3.87068 155.805V155.8L3.82576 155.63C3.6958 155.105 3.56596 154.575 3.44099 154.045V154.039C3.39603 153.854 3.35608 153.669 3.31111 153.489V153.479C3.28111 153.359 3.25615 153.239 3.22615 153.119V153.095H3.22029L3.18025 152.935V152.92C3.16459 152.864 3.15116 152.807 3.14021 152.75V152.704H3.13045L3.09529 152.555V152.534H3.09041C3.08041 152.474 3.06523 152.414 3.05525 152.354V152.319H3.04549L3.01033 152.159V152.145H3.00545L2.92537 151.765V151.76C2.80539 151.22 2.69063 150.675 2.58064 150.13V150.125L2.53572 149.92V149.909L2.49568 149.71V149.694H2.4908C2.48082 149.63 2.46571 149.565 2.45076 149.5V149.479H2.44588C2.43588 149.41 2.42071 149.344 2.41072 149.274V149.265H2.40584C2.38084 149.12 2.35088 148.969 2.32088 148.824V148.795H2.31599L2.28084 148.6V148.58H2.27596L2.23592 148.375V148.364L2.19588 148.149V148.145C2.13592 147.835 2.08103 147.52 2.02107 147.2L1.98103 146.96V146.944H1.97615L1.93611 146.715V146.685H1.93025L1.89119 146.475V146.425H1.88533C1.87533 146.36 1.86115 146.294 1.85115 146.229V146.17H1.84041C1.82541 146.105 1.81525 146.035 1.80525 145.97V145.955L1.76619 145.71V145.694H1.76033L1.72029 145.444V145.439L1.67537 145.185V145.18C1.60538 144.725 1.53052 144.264 1.46053 143.81V143.805L1.42049 143.52V143.505H1.4156L1.37556 143.235V143.2H1.37068C1.36069 143.12 1.34553 143.035 1.33553 142.95V142.899H1.32576C1.31576 142.815 1.30059 142.724 1.2906 142.64V142.6H1.28572L1.24568 142.325V142.3L1.20564 142.015V141.995H1.20076L1.16072 141.7V141.695C1.13072 141.48 1.10576 141.27 1.07576 141.05C1.04579 140.82 1.02077 140.59 0.990799 140.355V140.32H0.985916L0.945877 140.01V139.975H0.940994C0.931 139.87 0.915827 139.765 0.905838 139.66V139.59H0.896073C0.88109 139.49 0.870907 139.385 0.860916 139.285V139.245H0.856034C0.841056 139.13 0.830958 139.01 0.815994 138.896V138.86L0.775955 138.505V138.47H0.771073C0.741088 138.215 0.715984 137.96 0.690994 137.705V137.695H0.686112C0.676112 137.55 0.661073 137.405 0.646073 137.26V137.225H0.64119L0.601151 136.82V136.75H0.595291C0.585291 136.625 0.571108 136.5 0.561112 136.375V136.28H0.550369C0.535386 136.15 0.526179 136.02 0.51619 135.896V135.805H0.51033C0.495359 135.665 0.486139 135.525 0.476151 135.385V135.33H0.470291C0.455296 135.18 0.440249 135.025 0.430252 134.87V134.86C0.400258 134.485 0.370288 134.105 0.345291 133.73V133.655H0.340409C0.325409 133.48 0.315369 133.3 0.300369 133.125V133.01H0.295487C0.280509 132.825 0.270322 132.645 0.26033 132.46V132.32H0.250565C0.235565 132.12 0.225409 131.92 0.215409 131.715V131.675L0.170487 130.945C0.155487 130.63 0.145447 130.31 0.130448 129.99V129.825H0.120682C0.110682 129.525 0.0955239 129.22 0.0855257 128.915V128.71H0.0806429C0.0656522 128.32 0.0554829 127.93 0.0454867 127.54V127.506H0.0406039C-0.0653799 123.189 0.0360922 118.868 0.345291 114.561V114.556C0.580291 111.246 0.940497 107.976 1.42049 104.756V104.751C1.55046 103.856 1.70118 102.972 1.85115 102.092V102.086C1.98612 101.296 2.13087 100.511 2.28084 99.7266C2.32584 99.4966 2.36572 99.2661 2.41072 99.0361C2.63569 97.8714 2.88026 96.7065 3.14021 95.5518V95.5469C3.3552 94.582 3.58578 93.6268 3.82576 92.6719V92.667C4.03576 91.847 4.25029 91.0316 4.47029 90.2217V90.2168C4.53027 90.0069 4.5861 89.7921 4.64607 89.5771V89.5723C4.90604 88.6374 5.18056 87.7071 5.46053 86.7822V86.7773C6.02105 84.9442 6.62266 83.1234 7.26521 81.3174H7.27107C7.63101 80.3076 8.0004 79.3074 8.38533 78.3076C8.81533 77.1977 9.25541 76.092 9.71541 74.9971H9.72029V74.9922C10.4552 73.2524 11.2307 71.5327 12.0406 69.8379C12.9806 67.873 13.9703 65.9322 15.0103 64.0322C15.4452 63.2374 15.8905 62.4478 16.3404 61.668V61.6631C16.8754 60.7381 17.4212 59.8231 17.9762 58.9131C18.3861 58.2481 18.8062 57.5925 19.2262 56.9375C20.421 55.0679 21.6656 53.2282 22.9654 51.4336C24.1154 49.8387 25.3057 48.2781 26.5357 46.7432C27.7157 45.2683 28.936 43.8182 30.191 42.4033V42.3984C53.1959 16.3245 87.5306 0.335 126.755 0H129.246ZM204.895 95.5361C208.48 89.8064 201.44 83.3419 196.065 87.4365L155.68 118.096C152.96 120.176 149.185 120.176 146.43 118.126L116.51 95.6963C107.52 88.9765 94.7199 91.3117 88.7349 100.816L51.1353 160.459C47.5203 166.189 54.5601 172.618 59.9351 168.523L100.32 137.87C103.04 135.79 106.815 135.79 109.57 137.835L139.49 160.27C148.48 166.989 161.28 164.654 167.265 155.149L204.895 95.5361Z" fill="white"/>
</svg>
