<svg width="64" height="81" viewBox="0 0 64 81" fill="none" xmlns="http://www.w3.org/2000/svg">
<path d="M31.9996 13.5332C27.049 13.5332 22.3008 15.4999 18.8001 19.0005C15.2994 22.5012 13.3327 27.2495 13.3327 32.2001C13.3327 37.1507 15.2994 41.8989 18.8001 45.3996C22.3008 48.9003 27.049 50.867 31.9996 50.867C36.9502 50.867 41.6985 48.9003 45.1992 45.3996C48.6998 41.8989 50.6665 37.1507 50.6665 32.2001C50.6611 27.2511 48.6927 22.5059 45.1932 19.0065C41.6937 15.507 36.9485 13.5385 31.9996 13.5332ZM31.9996 48.2003C27.7561 48.2003 23.6864 46.5146 20.6858 43.5139C17.6853 40.5132 15.9994 36.4436 15.9994 32.2001C15.9994 27.9565 17.6851 23.8868 20.6858 20.8863C23.6865 17.8857 27.7561 16.1999 31.9996 16.1999C36.2432 16.1999 40.3129 17.8856 43.3134 20.8863C46.314 23.887 47.9998 27.9565 47.9998 32.2001C47.995 36.4424 46.308 40.509 43.3087 43.5092C40.3086 46.5087 36.242 48.1955 31.9996 48.2003Z" fill="url(#paint0_linear_175_1094)"/>
<path d="M32.0003 25.5332C35.0521 25.5332 37.3337 26.941 37.3337 28.1999C37.3337 28.9362 37.9307 29.5332 38.6671 29.5332C39.4034 29.5332 40.0004 28.9362 40.0004 28.1999C40.0004 25.5129 37.1617 23.3558 33.3337 22.9439V20.1998C33.3337 19.4635 32.7366 18.8665 32.0003 18.8665C31.264 18.8665 30.667 19.4635 30.667 20.1998V22.9439C26.839 23.3558 24.0002 25.5129 24.0002 28.1999C24.0002 31.1904 27.5151 33.5333 32.0003 33.5333C35.0521 33.5333 37.3337 34.941 37.3337 36.2C37.3337 37.4589 35.0521 38.8667 32.0003 38.8667C28.9486 38.8667 26.6669 37.4589 26.6669 36.2C26.6669 35.4637 26.0699 34.8666 25.3336 34.8666C24.5973 34.8666 24.0002 35.4637 24.0002 36.2C24.0002 38.8869 26.839 41.0441 30.667 41.456V44.2001C30.667 44.9364 31.264 45.5334 32.0003 45.5334C32.7366 45.5334 33.3337 44.9364 33.3337 44.2001V41.456C37.1617 41.0441 40.0004 38.8869 40.0004 36.2C40.0004 33.2095 36.4856 30.8666 32.0003 30.8666C28.9486 30.8666 26.6669 29.4588 26.6669 28.1999C26.6669 26.941 28.9486 25.5332 32.0003 25.5332Z" fill="url(#paint1_linear_175_1094)"/>
<path d="M59.6922 25.4798C58.4648 24.5203 57.4302 23.337 56.644 21.9923C56.2178 20.4203 56.0957 18.7816 56.2838 17.1642C56.3916 14.3545 56.5041 11.4492 54.6279 9.57368C52.7517 7.69754 49.8463 7.81122 47.0356 7.91774V7.91714C45.4177 8.10465 43.7784 7.98202 42.2064 7.55583C40.8624 6.76891 39.679 5.7344 38.7182 4.50756C36.8706 2.4891 34.7759 0.199707 31.9997 0.199707C29.2234 0.199707 27.1288 2.48895 25.2811 4.50756C24.3204 5.73437 23.1371 6.76892 21.7929 7.55583C20.2203 7.98143 18.5816 8.10405 16.9638 7.91714C14.1488 7.80643 11.2488 7.69571 9.37145 9.57187C7.4941 11.448 7.60717 14.3547 7.71673 17.1642C7.90483 18.7814 7.7828 20.4201 7.35661 21.9923C6.57028 23.3369 5.53517 24.5209 4.30712 25.4798C2.28866 27.3293 -0.000732422 29.424 -0.000732422 32.2002C-0.000732422 34.9765 2.28851 37.0711 4.30712 38.9206C5.53452 39.8801 6.56909 41.0634 7.35539 42.4082C7.78159 43.9802 7.90361 45.6189 7.71551 47.2363C7.60777 50.0459 7.49527 52.9512 9.37145 54.8268C11.2476 56.7029 14.1531 56.591 16.9638 56.4827C17.5346 56.4601 18.1049 56.4452 18.6662 56.4428V78.8675C18.6662 79.3186 18.8942 79.7395 19.2727 79.9853C19.6513 80.2318 20.1281 80.2693 20.5406 80.0859L31.9996 74.993L43.4587 80.0865V80.0859C43.8712 80.2693 44.3479 80.2318 44.7265 79.9853C45.1051 79.7395 45.3331 79.3187 45.3331 78.8675V56.4428C45.8944 56.4428 46.4652 56.4601 47.0355 56.4827C49.8486 56.5934 52.7486 56.7041 54.6278 54.828C56.5064 52.9519 56.3921 50.0452 56.2825 47.2357C56.0944 45.6184 56.2165 43.9797 56.6427 42.4076C57.429 41.0629 58.4641 39.879 59.6922 38.92C61.7106 37.0705 64 34.9759 64 32.1996C64 29.4234 61.7108 27.3287 59.6922 25.4793L59.6922 25.4798ZM42.6665 76.816L32.5408 72.316C32.1962 72.1624 31.8033 72.1624 31.4587 72.316L21.333 76.816V56.7183C21.4883 56.7522 21.6419 56.7945 21.7931 56.8451C23.1372 57.632 24.3205 58.6665 25.2813 59.8933C27.1289 61.9118 29.2236 64.2012 31.9998 64.2012C34.7761 64.2012 36.8708 61.9119 38.7184 59.8933C39.6791 58.6665 40.8624 57.632 42.2066 56.8451C42.3578 56.7945 42.5114 56.7528 42.6667 56.7195L42.6665 76.816ZM57.8904 36.9497C56.3576 38.1527 55.0934 39.6628 54.1796 41.3843C53.5802 43.3075 53.3891 45.335 53.6183 47.3362C53.7034 49.5738 53.7945 51.8868 52.7421 52.9363C51.6903 53.9857 49.3754 53.8964 47.142 53.8107L47.1426 53.8113C45.1402 53.5821 43.1129 53.7738 41.189 54.3738C39.4682 55.2875 37.9575 56.5518 36.7544 58.0846C35.1996 59.7858 33.5996 61.5353 31.9996 61.5353C30.3996 61.5353 28.7996 59.786 27.2477 58.0924C26.0447 56.5596 24.5339 55.2954 22.8126 54.3816C21.5394 53.9209 20.1887 53.7125 18.8351 53.7685C18.1803 53.7685 17.5167 53.7941 16.8607 53.8191C14.6231 53.906 12.3089 53.9953 11.2606 52.9429C10.2124 51.8911 10.2981 49.5774 10.3844 47.3428C10.6136 45.3416 10.4219 43.3141 9.82193 41.3909C8.90942 39.6694 7.64514 38.1587 6.11111 36.9563C4.41524 35.4015 2.66589 33.8015 2.66589 32.2015C2.66589 30.6015 4.41524 29.0014 6.10882 27.4496C7.64164 26.2466 8.9058 24.7358 9.81964 23.0145C10.4191 21.0913 10.6101 19.0638 10.381 17.0626C10.2958 14.825 10.2048 12.512 11.2572 11.4625C12.309 10.4131 14.6227 10.5 16.8572 10.5881H16.8566C18.8591 10.8161 20.8864 10.6244 22.8102 10.025C24.5311 9.11128 26.0418 7.84758 27.2449 6.31416C28.7996 4.61707 30.3996 2.86772 31.9997 2.86772C33.5997 2.86772 35.1997 4.61707 36.7516 6.31065C37.9545 7.84347 39.4653 9.10764 41.1866 10.0215C43.1099 10.6209 45.1367 10.8126 47.1386 10.584C49.3772 10.4971 51.6904 10.4066 52.7386 11.4602C53.7868 12.5138 53.7011 14.8257 53.6148 17.0602C53.3857 19.0615 53.5773 21.0889 54.1773 23.0122C55.0898 24.7336 56.3541 26.2443 57.8882 27.4468C59.5828 29.0016 61.3334 30.6016 61.3334 32.2016C61.3334 33.8016 59.5828 35.4016 57.8904 36.9535V36.9497Z" fill="url(#paint2_linear_175_1094)"/>
<defs>
<linearGradient id="paint0_linear_175_1094" x1="31.9996" y1="13.5332" x2="31.9996" y2="50.867" gradientUnits="userSpaceOnUse">
<stop stop-color="white"/>
<stop offset="0.390625" stop-color="white"/>
<stop offset="1" stop-color="white" stop-opacity="0"/>
</linearGradient>
<linearGradient id="paint1_linear_175_1094" x1="32.0003" y1="18.8665" x2="32.0003" y2="45.5334" gradientUnits="userSpaceOnUse">
<stop stop-color="white"/>
<stop offset="0.390625" stop-color="white"/>
<stop offset="1" stop-color="white" stop-opacity="0"/>
</linearGradient>
<linearGradient id="paint2_linear_175_1094" x1="31.9996" y1="0.199707" x2="31.9996" y2="80.201" gradientUnits="userSpaceOnUse">
<stop stop-color="white"/>
<stop offset="0.390625" stop-color="white"/>
<stop offset="1" stop-color="white" stop-opacity="0"/>
</linearGradient>
</defs>
</svg>
