<svg width="24" height="24" viewBox="0 0 24 24" fill="none" xmlns="http://www.w3.org/2000/svg">
<path d="M23.7286 0.243354C23.6188 0.13423 23.481 0.0576875 23.3303 0.0222397C23.1797 -0.0132081 23.0221 -0.00617167 22.8752 0.0425665L0.56546 7.4773C0.403164 7.53376 0.262023 7.63852 0.160981 7.77751C0.0599389 7.9165 0.00383168 8.08307 0.000189299 8.25487C-0.00345308 8.42667 0.0455439 8.59548 0.140604 8.73863C0.235664 8.88177 0.372238 8.99242 0.531996 9.05571L10.9618 13.0101L14.9162 23.4399C14.9754 23.6049 15.0846 23.7473 15.2286 23.8473C15.3725 23.9473 15.5441 23.9998 15.7194 23.9977C15.8903 23.9957 16.0564 23.9411 16.1951 23.8413C16.3339 23.7415 16.4384 23.6013 16.4946 23.4399L23.9294 1.13017C23.985 0.978727 23.9956 0.814443 23.96 0.657103C23.9243 0.499763 23.844 0.356077 23.7286 0.243354ZM15.6524 20.6512L12.5848 12.5472L15.2174 9.91464C15.3652 9.75604 15.4456 9.54628 15.4418 9.32954C15.438 9.1128 15.3502 8.906 15.1969 8.75272C15.0436 8.59944 14.8368 8.51164 14.6201 8.50781C14.4033 8.50399 14.1936 8.58444 14.035 8.73222L11.4247 11.3871L3.34303 8.31949L21.8155 2.15642L15.6524 20.6512Z" fill="white"/>
<path d="M5.41227 13.9304C5.56005 13.7718 5.64051 13.562 5.63668 13.3453C5.63286 13.1286 5.54505 12.9218 5.39177 12.7685C5.23849 12.6152 5.0317 12.5274 4.81495 12.5236C4.59821 12.5197 4.38845 12.6002 4.22986 12.748L1.73116 15.2467C1.57584 15.4042 1.48877 15.6166 1.48877 15.8379C1.48877 16.0591 1.57584 16.2715 1.73116 16.4291C1.80846 16.5073 1.90052 16.5695 2.002 16.6119C2.10349 16.6543 2.21238 16.6761 2.32237 16.6761C2.43236 16.6761 2.54125 16.6543 2.64274 16.6119C2.74422 16.5695 2.83628 16.5073 2.91358 16.4291L5.41227 13.9304Z" fill="white"/>
<path d="M7.4536 16.5182C7.37631 16.44 7.28425 16.3779 7.18276 16.3355C7.08128 16.2931 6.97238 16.2712 6.8624 16.2712C6.75241 16.2712 6.64352 16.2931 6.54203 16.3355C6.44054 16.3779 6.34848 16.44 6.27119 16.5182L3.1032 19.6862C2.95542 19.8448 2.87497 20.0546 2.87879 20.2713C2.88262 20.4881 2.97042 20.6949 3.1237 20.8481C3.27698 21.0014 3.48378 21.0892 3.70052 21.0931C3.91726 21.0969 4.12702 21.0164 4.28562 20.8686L7.4536 17.7007C7.53185 17.6234 7.59397 17.5313 7.63637 17.4298C7.67877 17.3283 7.70061 17.2194 7.70061 17.1095C7.70061 16.9995 7.67877 16.8906 7.63637 16.7891C7.59397 16.6876 7.53185 16.5955 7.4536 16.5182Z" fill="white"/>
<path d="M10.0414 18.5597L7.52044 21.0584C7.37266 21.217 7.2922 21.4268 7.29603 21.6435C7.29985 21.8602 7.38765 22.067 7.54094 22.2203C7.69422 22.3736 7.90102 22.4614 8.11776 22.4652C8.3345 22.469 8.54426 22.3886 8.70285 22.2408L11.2015 19.7421C11.324 19.5822 11.3846 19.3834 11.3723 19.1824C11.3599 18.9813 11.2755 18.7915 11.1344 18.6477C10.9933 18.5039 10.8051 18.4158 10.6043 18.3997C10.4036 18.3835 10.2037 18.4403 10.0414 18.5597Z" fill="white"/>
</svg>
