<svg width="37" height="37" viewBox="0 0 37 37" fill="none" xmlns="http://www.w3.org/2000/svg">
<g filter="url(#filter0_i_175_875)">
<rect width="37" height="37" rx="5" fill="url(#paint0_linear_175_875)"/>
</g>
<path d="M24.5507 11.1251C24.5507 11.1251 26.1233 10.5119 25.9922 12.0011C25.9486 12.6143 25.5554 14.7606 25.2496 17.082L24.2012 23.9588C24.2012 23.9588 24.1138 24.9662 23.3275 25.1414C22.5412 25.3166 21.3618 24.5283 21.1433 24.353C20.9686 24.2216 17.867 22.2506 16.7749 21.2869C16.4691 21.0241 16.1196 20.4985 16.8186 19.8853L21.4054 15.5052C21.9297 14.9796 22.4538 13.7532 20.2696 15.2424L14.1539 19.4035C14.1539 19.4035 13.4549 19.8415 12.1444 19.4473L9.30496 18.5713C9.30496 18.5713 8.25654 17.9143 10.0476 17.2572C14.416 15.1986 19.7892 13.0961 24.5507 11.1251Z" fill="white"/>
<defs>
<filter id="filter0_i_175_875" x="0" y="0" width="37" height="37" filterUnits="userSpaceOnUse" color-interpolation-filters="sRGB">
<feFlood flood-opacity="0" result="BackgroundImageFix"/>
<feBlend mode="normal" in="SourceGraphic" in2="BackgroundImageFix" result="shape"/>
<feColorMatrix in="SourceAlpha" type="matrix" values="0 0 0 0 0 0 0 0 0 0 0 0 0 0 0 0 0 0 127 0" result="hardAlpha"/>
<feOffset/>
<feGaussianBlur stdDeviation="2.5"/>
<feComposite in2="hardAlpha" operator="arithmetic" k2="-1" k3="1"/>
<feColorMatrix type="matrix" values="0 0 0 0 0.670833 0 0 0 0 0.94075 0 0 0 0 1 0 0 0 1 0"/>
<feBlend mode="normal" in2="shape" result="effect1_innerShadow_175_875"/>
</filter>
<linearGradient id="paint0_linear_175_875" x1="-1" y1="2.2319e-07" x2="37" y2="37" gradientUnits="userSpaceOnUse">
<stop stop-color="#65BDFF"/>
<stop offset="1" stop-color="#0095D5"/>
</linearGradient>
</defs>
</svg>
