<svg width="47" height="47" viewBox="0 0 47 47" fill="none" xmlns="http://www.w3.org/2000/svg">
<path d="M23.5917 0C10.7803 0 0.394531 10.3857 0.394531 23.1972C0.394531 36.0086 10.7803 46.3944 23.5917 46.3944C36.4032 46.3944 46.7889 36.0086 46.7889 23.1972C46.7889 10.3857 36.4032 0 23.5917 0ZM35.6487 14.6737L31.5287 34.3427C31.4788 34.5806 31.37 34.8022 31.2122 34.987C31.0544 35.1719 30.8526 35.3141 30.6255 35.4007C30.3984 35.4872 30.1531 35.5153 29.9123 35.4823C29.6715 35.4493 29.4428 35.3564 29.2473 35.212L27.2691 33.7505C24.9452 32.0336 21.7254 32.227 19.6237 34.2097C19.5762 34.2545 19.5202 34.2894 19.4591 34.3124C19.3979 34.3354 19.3328 34.3459 19.2675 34.3434C19.2022 34.341 19.138 34.3255 19.0788 34.298C19.0195 34.2704 18.9664 34.2314 18.9224 34.183C18.8727 34.1285 18.8487 34.0554 18.8563 33.982L19.1852 30.7989C19.372 28.9911 20.2166 27.3149 21.5583 26.0889L30.8458 17.6032C30.902 17.5519 30.937 17.4814 30.9438 17.4056C30.9506 17.3298 30.9288 17.2542 30.8826 17.1937C30.8364 17.1332 30.7692 17.0923 30.6943 17.0789C30.6193 17.0655 30.5421 17.0807 30.4778 17.1214L19.2507 24.2273C17.1537 25.5545 14.5703 25.8664 12.2177 25.0763L9.6734 24.2218C9.50688 24.1658 9.36174 24.0597 9.25791 23.918C9.15408 23.7763 9.09663 23.606 9.09345 23.4303C9.09028 23.2547 9.14153 23.0824 9.24017 22.937C9.33881 22.7916 9.48002 22.6804 9.64441 22.6184L34.1482 13.3877C34.3373 13.3165 34.5419 13.2975 34.7408 13.3325C34.9397 13.3676 35.1256 13.4554 35.2789 13.5868C35.4323 13.7182 35.5475 13.8884 35.6125 14.0796C35.6776 14.2708 35.6901 14.476 35.6487 14.6737Z" fill="url(#paint0_linear_175_128)"/>
<defs>
<linearGradient id="paint0_linear_175_128" x1="23.5917" y1="0" x2="23.5917" y2="46.3944" gradientUnits="userSpaceOnUse">
<stop stop-color="white"/>
<stop offset="0.390625" stop-color="white"/>
<stop offset="1" stop-color="white" stop-opacity="0"/>
</linearGradient>
</defs>
</svg>
