<svg width="58" height="76" viewBox="0 0 58 76" fill="none" xmlns="http://www.w3.org/2000/svg">
<path d="M48.317 24.742L52.4195 20.6284L54.4856 22.6934C55.0716 23.2794 56.0207 23.2794 56.6083 22.6934C57.1944 22.1074 57.1944 21.1572 56.6083 20.5707L50.3579 14.3246C49.7719 13.7386 48.8229 13.7386 48.2352 14.3246C47.6492 14.9106 47.6492 15.8608 48.2352 16.4473L50.2953 18.5074L45.9692 22.8461C42.7214 20.4906 38.9855 18.7728 34.9233 17.9257C37.2848 16.1301 38.8199 13.3008 38.8199 10.1108C38.8215 4.69492 34.4142 0.288696 28.9983 0.288696C23.5825 0.288696 19.1768 4.69492 19.1768 10.1091C19.1768 13.2976 20.7119 16.1284 23.0734 17.9241C19.0127 18.7712 15.2787 20.4889 12.0307 22.8427L7.69806 18.51L9.76134 16.4468C10.3474 15.8607 10.3474 14.9106 9.76134 14.324C9.17533 13.738 8.22515 13.738 7.63861 14.324L4.53302 17.4296C4.52702 17.4356 4.51721 17.4373 4.51121 17.4438C4.50521 17.4498 4.50358 17.4596 4.49704 17.4656L1.39144 20.5712C0.805433 21.1572 0.805433 22.1063 1.39144 22.6939C1.97745 23.2799 2.92652 23.2799 3.51417 22.6939L5.57745 20.6306L9.68503 24.7382C3.75685 30.0521 -0.000732405 37.7406 -0.000732405 46.3102C-0.0012775 62.3015 13.0093 75.312 28.9982 75.312C44.9895 75.312 58 62.3015 58 46.3102C58.0016 37.742 54.2441 30.0552 48.3174 24.741L48.317 24.742ZM28.9988 3.29005C32.7607 3.29005 35.8194 6.35043 35.8194 10.1095C35.8194 13.3541 33.5391 16.0645 30.4989 16.7525L30.4995 11.1612H32.1921C33.0218 11.1612 33.6929 10.4907 33.6929 9.66047C33.6929 8.83079 33.0224 8.15972 32.1921 8.15972H25.807C24.9774 8.15972 24.3063 8.83023 24.3063 9.66047C24.3063 10.4901 24.9768 11.1612 25.807 11.1612H27.498V16.752C24.4579 16.064 22.1776 13.3541 22.1776 10.109C22.1798 6.35029 25.2385 3.29005 28.9987 3.29005H28.9988ZM28.9988 72.3112C14.6626 72.3112 3.00017 60.6483 3.00017 46.3112C3.00017 31.9742 14.6631 20.3126 28.9988 20.3126C43.3364 20.3126 54.9987 31.9756 54.9987 46.3112C54.9987 60.6469 43.3358 72.3112 28.9988 72.3112Z" fill="url(#paint0_linear_175_1076)"/>
<path d="M30.2888 44.4009H30.2027V39.0009C31.6783 39.2119 33.0455 39.7685 34.3102 40.6669L36.1779 38.0241C34.3005 36.7408 32.3096 36.0234 30.2028 35.8687V34.4039H28.3646V35.8403C26.5063 35.9357 24.9979 36.5108 23.8384 37.563C22.6789 38.6178 22.1022 39.9714 22.1022 41.6285C22.1022 43.2852 22.6054 44.534 23.6106 45.3768C24.6158 46.219 26.2006 46.901 28.3652 47.4166V52.9901C26.6584 52.7213 25.0033 51.8884 23.3947 50.4907L21.2971 52.9901C23.3822 54.808 25.7393 55.852 28.3647 56.1208V58.2184H30.2029V56.1502C32.1567 56.0548 33.7261 55.4813 34.9139 54.4261C36.1018 53.374 36.696 52.0096 36.696 50.3327C36.696 48.657 36.1787 47.3787 35.1441 46.4972C34.1089 45.6174 32.4909 44.9186 30.2892 44.4012L30.2888 44.4009ZM28.3662 43.8836C27.2939 43.538 26.564 43.1804 26.1829 42.8064C25.8002 42.433 25.6078 41.9266 25.6078 41.2839C25.6078 40.6417 25.8514 40.1053 26.3393 39.6758C26.8283 39.2446 27.5037 38.9912 28.3666 38.9132L28.3662 43.8836ZM32.386 52.2719C31.8485 52.7129 31.1213 52.9817 30.2027 53.0754V47.9049C31.3502 48.2505 32.1362 48.6174 32.5599 49.0099C32.9801 49.4024 33.1911 49.9349 33.1911 50.6044C33.1911 51.2765 32.9224 51.8331 32.386 52.2719L32.386 52.2719Z" fill="url(#paint1_linear_175_1076)"/>
<path d="M28.9988 27.3322C29.8285 27.3322 30.4995 26.6617 30.4995 25.8315V23.2432C30.4995 22.4135 29.829 21.7424 28.9988 21.7424C28.1691 21.7424 27.498 22.4129 27.498 23.2432V25.8315C27.4986 26.6617 28.1707 27.3322 28.9988 27.3322Z" fill="url(#paint2_linear_175_1076)"/>
<path d="M28.9988 65.2876C28.1691 65.2876 27.498 65.9581 27.498 66.7883V69.3783C27.498 70.208 28.1686 70.879 28.9988 70.879C29.8285 70.879 30.4995 70.2085 30.4995 69.3783V66.7883C30.4995 65.9581 29.829 65.2876 28.9988 65.2876Z" fill="url(#paint3_linear_175_1076)"/>
<path d="M52.0687 44.8097H49.4772C48.6476 44.8097 47.9765 45.4802 47.9765 46.3104C47.9765 47.1401 48.647 47.8112 49.4772 47.8112H52.0687C52.8984 47.8112 53.5695 47.1407 53.5695 46.3104C53.5695 45.4802 52.8973 44.8097 52.0687 44.8097Z" fill="url(#paint4_linear_175_1076)"/>
<path d="M8.52313 44.8097H5.93318C5.1035 44.8097 4.43243 45.4802 4.43243 46.3104C4.43243 47.1401 5.10294 47.8112 5.93318 47.8112H8.52313C9.35281 47.8112 10.0239 47.1407 10.0239 46.3104C10.0233 45.4802 9.35282 44.8097 8.52313 44.8097Z" fill="url(#paint5_linear_175_1076)"/>
<path d="M44.2507 28.9382L42.4191 30.7698C41.8331 31.3558 41.8331 32.3049 42.4191 32.8908C43.0051 33.4768 43.9542 33.4768 44.5418 32.8908L46.3734 31.0592C46.9594 30.4732 46.9594 29.5241 46.3734 28.9382C45.7858 28.3522 44.8367 28.3522 44.2507 28.9382Z" fill="url(#paint6_linear_175_1076)"/>
<path d="M13.4582 59.7306L11.6283 61.5622C11.0423 62.1482 11.0423 63.0984 11.6283 63.6832C12.2143 64.2693 13.1634 64.2693 13.751 63.6832L15.581 61.8516C16.167 61.2656 16.167 60.3154 15.581 59.7306C14.9944 59.144 14.0442 59.144 13.4582 59.7306Z" fill="url(#paint7_linear_175_1076)"/>
<path d="M44.54 59.7308C43.9539 59.1448 43.0038 59.1448 42.4172 59.7308C41.8312 60.3168 41.8312 61.2658 42.4172 61.8518L44.2489 63.6834C44.8349 64.2695 45.7839 64.2695 46.3716 63.6834C46.9576 63.0974 46.9576 62.1484 46.3716 61.5624L44.54 59.7308Z" fill="url(#paint8_linear_175_1076)"/>
<path d="M13.751 28.9382C13.165 28.3522 12.2148 28.3522 11.6283 28.9382C11.0423 29.5225 11.0423 30.4732 11.6283 31.0592L13.4582 32.8908C14.0442 33.4768 14.9944 33.4768 15.581 32.8908C16.167 32.3065 16.167 31.3558 15.581 30.7698L13.751 28.9382Z" fill="url(#paint9_linear_175_1076)"/>
<defs>
<linearGradient id="paint0_linear_175_1076" x1="28.9996" y1="0.288696" x2="28.9996" y2="75.312" gradientUnits="userSpaceOnUse">
<stop stop-color="white"/>
<stop offset="0.390625" stop-color="white"/>
<stop offset="1" stop-color="white" stop-opacity="0"/>
</linearGradient>
<linearGradient id="paint1_linear_175_1076" x1="28.9966" y1="34.4039" x2="28.9966" y2="58.2184" gradientUnits="userSpaceOnUse">
<stop stop-color="white"/>
<stop offset="0.390625" stop-color="white"/>
<stop offset="1" stop-color="white" stop-opacity="0"/>
</linearGradient>
<linearGradient id="paint2_linear_175_1076" x1="28.9988" y1="21.7424" x2="28.9988" y2="27.3322" gradientUnits="userSpaceOnUse">
<stop stop-color="white"/>
<stop offset="0.390625" stop-color="white"/>
<stop offset="1" stop-color="white" stop-opacity="0"/>
</linearGradient>
<linearGradient id="paint3_linear_175_1076" x1="28.9988" y1="65.2876" x2="28.9988" y2="70.879" gradientUnits="userSpaceOnUse">
<stop stop-color="white"/>
<stop offset="0.390625" stop-color="white"/>
<stop offset="1" stop-color="white" stop-opacity="0"/>
</linearGradient>
<linearGradient id="paint4_linear_175_1076" x1="50.773" y1="44.8097" x2="50.773" y2="47.8112" gradientUnits="userSpaceOnUse">
<stop stop-color="white"/>
<stop offset="0.390625" stop-color="white"/>
<stop offset="1" stop-color="white" stop-opacity="0"/>
</linearGradient>
<linearGradient id="paint5_linear_175_1076" x1="7.22816" y1="44.8097" x2="7.22816" y2="47.8112" gradientUnits="userSpaceOnUse">
<stop stop-color="white"/>
<stop offset="0.390625" stop-color="white"/>
<stop offset="1" stop-color="white" stop-opacity="0"/>
</linearGradient>
<linearGradient id="paint6_linear_175_1076" x1="44.3963" y1="28.4987" x2="44.3963" y2="33.3303" gradientUnits="userSpaceOnUse">
<stop stop-color="white"/>
<stop offset="0.390625" stop-color="white"/>
<stop offset="1" stop-color="white" stop-opacity="0"/>
</linearGradient>
<linearGradient id="paint7_linear_175_1076" x1="13.6046" y1="59.2906" x2="13.6046" y2="64.1228" gradientUnits="userSpaceOnUse">
<stop stop-color="white"/>
<stop offset="0.390625" stop-color="white"/>
<stop offset="1" stop-color="white" stop-opacity="0"/>
</linearGradient>
<linearGradient id="paint8_linear_175_1076" x1="44.3944" y1="59.2913" x2="44.3944" y2="64.123" gradientUnits="userSpaceOnUse">
<stop stop-color="white"/>
<stop offset="0.390625" stop-color="white"/>
<stop offset="1" stop-color="white" stop-opacity="0"/>
</linearGradient>
<linearGradient id="paint9_linear_175_1076" x1="13.6046" y1="28.4987" x2="13.6046" y2="33.3303" gradientUnits="userSpaceOnUse">
<stop stop-color="white"/>
<stop offset="0.390625" stop-color="white"/>
<stop offset="1" stop-color="white" stop-opacity="0"/>
</linearGradient>
</defs>
</svg>
