<svg width="45" height="45" viewBox="0 0 45 45" fill="none" xmlns="http://www.w3.org/2000/svg">
<path fill-rule="evenodd" clip-rule="evenodd" d="M0 22.5C0 34.9245 10.0755 45 22.5 45C34.9245 45 45 34.9245 45 22.5C45 10.0755 34.9245 0 22.5 0C10.0755 0 0 10.0755 0 22.5ZM22.5628 7.68604C26.5183 7.69054 30.2353 9.22954 33.0253 12.024C35.8198 14.8185 37.3543 18.5355 37.3498 22.4865C37.3453 30.6405 30.7123 37.2735 22.5628 37.2735H22.5583C20.0833 37.2735 17.6533 36.6525 15.4933 35.4735L7.6543 37.53L9.7513 29.8665C8.4553 27.6255 7.7758 25.0785 7.7758 22.473C7.7758 14.319 14.4133 7.68604 22.5628 7.68604ZM22.5628 34.776H22.5673C29.3398 34.776 34.8568 29.2635 34.8568 22.482C34.8613 19.2015 33.5833 16.11 31.2613 13.788C28.9393 11.466 25.8568 10.1835 22.5718 10.1835C15.7903 10.1835 10.2778 15.696 10.2733 22.473C10.2733 24.7995 10.9258 27.0585 12.1543 29.016L12.4468 29.4795L11.2048 34.0155L15.8578 32.796L16.3078 33.0615C18.1933 34.182 20.3578 34.776 22.5628 34.776ZM26.7838 24.3675C27.1213 24.489 28.9393 25.3845 29.3083 25.569C29.3898 25.6108 29.4653 25.6477 29.5346 25.6815C29.7789 25.8008 29.9447 25.8818 30.0148 26.001C30.1048 26.154 30.1048 26.892 29.7988 27.756C29.4928 28.6155 28.0168 29.403 27.3058 29.511C26.6713 29.6055 25.8658 29.646 24.9793 29.3625C24.4438 29.1915 23.7553 28.9665 22.8733 28.584C19.4026 27.0846 17.0595 23.7203 16.6225 23.0929C16.5926 23.05 16.5716 23.0199 16.5598 23.004C16.3753 22.761 15.0523 21.0015 15.0523 19.1835C15.0523 17.4814 15.8886 16.5879 16.2722 16.1781C16.2983 16.1502 16.3223 16.1245 16.3438 16.101C16.6813 15.732 17.0818 15.6375 17.3293 15.6375C17.5723 15.6375 17.8198 15.642 18.0358 15.651C18.0635 15.6527 18.0923 15.6527 18.122 15.6526C18.3381 15.6526 18.6032 15.6525 18.8683 16.2855C18.9439 16.469 19.0459 16.7183 19.1581 16.9923C19.4998 17.8269 19.9357 18.8916 20.0068 19.0305C20.1013 19.215 20.1598 19.431 20.0383 19.6785C20.0234 19.7089 20.0094 19.7378 19.9959 19.7656C19.8995 19.9645 19.8312 20.1055 19.6693 20.295C19.6078 20.367 19.5443 20.4445 19.4808 20.522C19.3538 20.677 19.2268 20.832 19.1158 20.943C18.9313 21.1275 18.7378 21.33 18.9538 21.699C19.1698 22.068 19.9123 23.2785 21.0103 24.2595C22.19 25.3149 23.2182 25.7609 23.7379 25.9864C23.8387 26.0301 23.9204 26.0656 23.9803 26.0955C24.3493 26.28 24.5653 26.2485 24.7813 26.001C24.9973 25.7535 25.7038 24.921 25.9513 24.552C26.1988 24.183 26.4463 24.246 26.7838 24.3675Z" fill="url(#paint0_linear_23_24)"/>
<defs>
<linearGradient id="paint0_linear_23_24" x1="22.5" y1="0" x2="22.5" y2="45" gradientUnits="userSpaceOnUse">
<stop stop-color="white"/>
<stop offset="1" stop-color="white" stop-opacity="0.6"/>
</linearGradient>
</defs>
</svg>
