<svg width="37" height="37" viewBox="0 0 37 37" fill="none" xmlns="http://www.w3.org/2000/svg">
<g clip-path="url(#clip0_23_16)">
<path d="M37 0H0V37H37V0Z" fill="#25D366"/>
<path d="M27.9229 9.02247C25.4233 6.51948 22.0983 5.14065 18.5555 5.13892C11.2575 5.13892 5.31702 11.0786 5.31413 18.3794C5.31326 20.7133 5.92289 22.9911 7.08145 24.9987L5.20312 31.861L12.2224 30.0203C14.1565 31.0742 16.3343 31.6306 18.5503 31.6315H18.5561C25.8538 31.6315 31.794 25.6907 31.7972 18.3898C31.798 14.8526 30.4218 11.5255 27.9229 9.02247ZM18.5558 29.395H18.5512C16.576 29.3944 14.6393 28.8634 12.9491 27.861L12.5473 27.6225L8.38223 28.7149L9.49368 24.6538L9.23208 24.2367C8.13017 22.485 7.54858 20.4601 7.54973 18.38C7.55176 12.312 12.4892 7.37539 18.5595 7.37539C21.4993 7.37626 24.2622 8.52239 26.3402 10.6031C28.418 12.6834 29.5621 15.448 29.5613 18.3893C29.5592 24.4575 24.6218 29.395 18.5558 29.395ZM24.5926 21.1524C24.2613 20.9868 22.6353 20.1866 22.3318 20.0756C22.0283 19.9652 21.8083 19.9103 21.5875 20.2419C21.3666 20.5731 20.733 21.3183 20.5396 21.5389C20.3465 21.7594 20.1537 21.7872 19.8227 21.6215C19.4921 21.4559 18.4257 21.1067 17.1628 19.9788C16.1791 19.1024 15.5151 18.0178 15.322 17.6868C15.129 17.3553 15.3015 17.1766 15.4669 17.0119C15.616 16.8636 15.7978 16.6257 15.9632 16.432C16.1285 16.2389 16.1835 16.1007 16.2942 15.8802C16.4043 15.6596 16.3494 15.4663 16.2664 15.3009C16.1837 15.135 15.5218 13.5064 15.2466 12.8442C14.9778 12.1993 14.7049 12.2866 14.5023 12.2764C14.3092 12.2669 14.0883 12.2646 13.8681 12.2646C13.6475 12.2646 13.2888 12.3473 12.9858 12.6785C12.6826 13.0098 11.8276 13.8102 11.8276 15.4388C11.8276 17.0671 13.0133 18.6404 13.1789 18.8613C13.3443 19.0816 15.5117 22.4243 18.8307 23.8572C19.6201 24.1977 20.2367 24.4015 20.7168 24.5541C21.5091 24.8062 22.2304 24.7703 22.8007 24.685C23.4366 24.5905 24.7582 23.8852 25.0348 23.112C25.31 22.339 25.31 21.6768 25.2271 21.5389C25.1441 21.401 24.9235 21.318 24.5926 21.1524Z" fill="white"/>
</g>
<defs>
<clipPath id="clip0_23_16">
<rect width="37" height="37" rx="4" fill="white"/>
</clipPath>
</defs>
</svg>
