<svg width="48" height="48" viewBox="0 0 48 48" fill="none" xmlns="http://www.w3.org/2000/svg">
<path d="M23.75 0C36.8672 0 47.5 10.6329 47.5 23.75C47.5 36.8671 36.8672 47.5 23.75 47.5C19.5528 47.5072 15.4294 46.3965 11.8038 44.2819L0.00953671 47.5L3.22054 35.701C1.10431 32.0742 -0.00731886 27.949 3.62631e-05 23.75C3.62631e-05 10.6329 10.6329 0 23.75 0ZM15.656 12.5875L15.181 12.6065C14.8739 12.6277 14.5739 12.7083 14.2975 12.844C14.04 12.9901 13.8049 13.1725 13.5993 13.3855C13.3143 13.6539 13.1528 13.8866 12.9794 14.1122C12.101 15.2544 11.628 16.6566 11.6352 18.0975C11.6399 19.2612 11.9439 20.3941 12.4189 21.4534C13.3903 23.5956 14.9887 25.8637 17.0977 27.9656C17.6059 28.4715 18.1047 28.9798 18.6414 29.4524C21.2621 31.7595 24.3848 33.4233 27.7614 34.3116L29.1104 34.5183C29.5498 34.542 29.9892 34.5087 30.4309 34.4874C31.1225 34.4509 31.7977 34.2637 32.4093 33.9388C32.72 33.7781 33.0236 33.6037 33.3189 33.4162C33.3189 33.4162 33.4195 33.3482 33.6158 33.2025C33.9364 32.965 34.1335 32.7964 34.3995 32.5185C34.599 32.3127 34.7653 32.0736 34.8983 31.8013C35.0835 31.4141 35.2688 30.6755 35.3448 30.0604C35.4018 29.5901 35.3852 29.3336 35.378 29.1745C35.3685 28.9204 35.1572 28.6568 34.9268 28.5451L33.5445 27.9253C33.5445 27.9253 31.4783 27.0251 30.2148 26.4504C30.0825 26.3928 29.9409 26.3598 29.7968 26.353C29.6343 26.336 29.47 26.3541 29.3151 26.4062C29.1602 26.4582 29.0183 26.5429 28.899 26.6546C28.8872 26.6499 28.728 26.7853 27.0109 28.8658C26.9124 28.9982 26.7766 29.0983 26.6209 29.1533C26.4653 29.2082 26.2968 29.2156 26.1369 29.1745C25.9821 29.1332 25.8305 29.0809 25.6833 29.0178C25.3888 28.8943 25.2867 28.8467 25.0848 28.7612C23.7212 28.1673 22.4591 27.3635 21.3442 26.3791C21.0449 26.1179 20.767 25.8329 20.482 25.5574C19.5477 24.6625 18.7334 23.6502 18.0595 22.5459L17.9194 22.3202C17.8203 22.1678 17.739 22.0044 17.6772 21.8334C17.5869 21.4842 17.822 21.204 17.822 21.204C17.822 21.204 18.3992 20.5722 18.6675 20.2302C18.9288 19.8977 19.1497 19.5748 19.2922 19.3444C19.5724 18.8931 19.6603 18.43 19.513 18.0714C18.848 16.4469 18.1609 14.8311 17.4515 13.224C17.3114 12.9057 16.8958 12.6777 16.5182 12.6326C16.3899 12.6168 16.2617 12.6041 16.1334 12.5946C15.8145 12.5763 15.4948 12.5795 15.1763 12.6041L15.656 12.5875Z" fill="url(#paint0_linear_901_3)"/>
<defs>
<linearGradient id="paint0_linear_901_3" x1="23.75" y1="0" x2="23.75" y2="47.5" gradientUnits="userSpaceOnUse">
<stop stop-color="white"/>
<stop offset="0.390625" stop-color="white"/>
<stop offset="1" stop-color="white" stop-opacity="0.2"/>
</linearGradient>
</defs>
</svg>
