<svg width="17" height="27" viewBox="0 0 17 27" fill="none" xmlns="http://www.w3.org/2000/svg">
<path d="M14.5544 10.8335C14.43 10.8335 14.1143 10.8763 13.7897 10.9771C13.7069 9.87293 12.7815 8.99977 11.6565 8.99977C11.1501 8.99977 10.684 9.17673 10.3173 9.47196C10.0462 8.64434 9.32951 8.08292 8.44199 8.08292C7.85429 8.08292 7.33137 8.32466 6.95851 8.71952L6.75558 3.04019C6.75558 1.73336 5.83536 0.748047 4.61502 0.748047C3.39468 0.748047 2.47446 1.73336 2.47446 3.04997L2.68412 12.8374C2.43718 12.9716 2.06249 13.217 1.58297 13.6525C-0.0762377 15.1605 -0.619324 18.8077 1.25443 21.6307C3.34028 24.7731 5.78432 26.1145 9.42731 26.1145C13.287 26.1145 14.5782 24.1775 15.5703 22.1934C16.5244 20.2851 16.5354 12.9771 16.5354 12.6672C16.5357 11.6901 15.61 10.8335 14.5544 10.8335ZM14.7503 21.7832C13.8163 23.6512 12.7714 25.1976 9.42762 25.1976C6.08536 25.1976 3.93899 24.0173 2.01878 21.1237C0.899911 19.4379 0.414281 15.9538 2.20002 14.3307C2.39286 14.1556 2.56309 14.0184 2.70734 13.9117L2.7758 17.1082C2.78131 17.3612 2.99004 17.5648 3.24401 17.5568C3.49707 17.5513 3.69786 17.342 3.69266 17.0886L3.39193 3.04019C3.39193 2.23061 3.89498 1.66491 4.61563 1.66491C5.33629 1.66491 5.83933 2.23061 5.83964 3.0567L6.14526 11.614C6.15351 11.8494 6.33872 12.0398 6.57313 12.0551C6.80265 12.0706 7.01597 11.9059 7.0554 11.6739L7.28736 10.2987C7.29164 10.2733 7.29378 10.2479 7.29378 10.2223C7.29378 9.52544 7.78766 8.99977 8.4426 8.99977C9.18129 8.99977 9.51777 9.63332 9.51777 10.2223V11.1391C9.51777 11.3925 9.72315 11.5975 9.9762 11.5975C10.2293 11.5975 10.4346 11.3922 10.4346 11.1391C10.4346 10.4649 10.9829 9.91663 11.6571 9.91663C12.3313 9.91663 12.8796 10.4649 12.8796 11.1391V13.1256C12.8796 13.3787 13.085 13.5841 13.338 13.5841C13.5911 13.5841 13.7964 13.3787 13.7964 13.1256V11.9582C13.9798 11.8689 14.3392 11.7504 14.555 11.7504C15.1021 11.7504 15.6192 12.1956 15.6192 12.6672C15.6189 14.7198 15.4624 20.359 14.7503 21.7832Z" fill="url(#paint0_linear_232_111)"/>
<defs>
<linearGradient id="paint0_linear_232_111" x1="16.5354" y1="0.748068" x2="-0.29282" y2="0.993781" gradientUnits="userSpaceOnUse">
<stop stop-color="#55C2FF"/>
<stop offset="1" stop-color="#39A0FF"/>
</linearGradient>
</defs>
</svg>
