<svg width="184" height="71" viewBox="0 0 184 71" fill="none" xmlns="http://www.w3.org/2000/svg">
<g clip-path="url(#clip0_298_17)">
<path fill-rule="evenodd" clip-rule="evenodd" d="M42.0097 18.198C42.0097 18.198 37.3017 14.3378 37.1009 14.2935C36.9224 14.2482 28.2652 14.0259 28.2652 14.0259C28.2652 14.0259 26.7033 13.9142 27.0157 15.7885C27.328 17.6627 28.109 19.046 28.109 19.046L39.3545 18.1305L41.251 18.8448L42.0097 18.198Z" fill="url(#paint0_linear_298_17)"/>
<path fill-rule="evenodd" clip-rule="evenodd" d="M110.754 34.6418C110.754 34.6418 100.267 28.5955 81.9712 26.8329C81.9712 26.8329 76.2147 25.3822 76.6163 27.4798C77.0402 29.5995 87.884 38.2565 88.5534 38.2565C89.2004 38.2565 112.383 38.6357 110.754 34.6418Z" fill="url(#paint1_linear_298_17)"/>
<path fill-rule="evenodd" clip-rule="evenodd" d="M164.059 26.0516C153.461 27.346 122.022 27.9041 113.231 28.0372C98.1474 20.161 85.2066 16.9702 75.7015 15.7881L117.337 15.3192L117.515 15.4083C117.515 15.4083 117.827 15.3644 118.431 15.3192H119.032L118.944 15.2752C125.391 14.7392 152.009 13.3336 165.621 24.6681L163.925 25.8062L164.059 26.0516ZM21.9507 20.0498C22.2407 20.697 22.5531 21.3442 22.5531 21.3442C22.5531 21.3442 38.8189 19.3355 46.2266 19.4918C42.0096 24.6461 44.2855 40.9565 44.2855 40.9565C44.4863 23.7986 47.4093 20.0047 49.6851 19.7152C50.2875 19.7824 51.0016 19.9387 51.7601 20.2733C52.1841 20.5627 52.4294 20.8081 52.4294 20.8081L53.1882 21.1207C56.0442 23.1954 59.1009 28.1935 59.8373 39.774L87.2816 41.9383C87.2816 41.9383 71.1943 37.8775 67.2227 33.9059C63.2288 29.9118 60.7967 25.0479 60.7967 25.0479L69.9448 24.9587C69.9448 24.9587 61.4438 18.488 54.393 16.0335L62.2917 15.9444C95.7601 18.4208 123.451 36.4048 123.517 36.8064C123.606 37.208 120.281 43.567 120.281 43.567C120.281 43.567 125.369 36.8733 125.369 36.0701C125.369 35.267 123.873 34.1959 123.873 34.1959C120.995 32.3663 118.185 30.7151 115.44 29.2202C126.753 29.7781 156.116 28.5952 164.996 27.8369C166.625 30.9382 169.614 36.4941 169.972 36.8064C170.485 37.2527 174.256 34.8875 174.256 34.8875L174.992 34.1513L178.606 41.3136L178.383 38.5022C178.383 38.5022 175.527 8.53703 120.281 13.3336H116.511C116.511 13.3336 104.596 4.11901 89.0221 1.97716C73.4478 -0.165856 60.462 -0.231844 46.0035 1.24083C46.0035 1.24083 34.4904 -3.48979 17.8898 22.928L12.6465 27.5023C12.6465 27.5023 4.27925 23.9098 5.46179 43.3439C5.46179 43.3439 6.55506 25.6279 12.6018 29.5326C12.6018 29.5326 15.681 32.2993 14.7884 42.0498C14.7884 42.0498 17.5997 31.1391 15.1678 28.7295L20.8128 22.1697C20.8128 22.1697 21.192 21.3442 21.9507 20.0498ZM47.2308 17.93L39.1536 18.466L24.7174 19.6029C24.7174 19.6029 23.4456 19.0009 23.3565 17.7065C26.5471 12.7988 32.5045 5.45739 40.1353 4.52076C40.1353 4.52076 43.036 3.80642 44.7317 9.5628C45.7581 13.0662 46.6729 16.1007 47.2308 17.93ZM114.213 13.7134C108.479 13.8465 85.028 14.4046 67.3342 15.1861C63.5634 15.1189 60.9083 15.3863 59.5472 15.5646C57.5168 15.6769 55.6649 15.7881 54.0137 15.8992C53.5899 15.7661 53.1658 15.6318 52.7643 15.5207L48.1901 3.11523C48.1901 3.11523 81.0118 1.57541 94.7339 4.38645C94.7339 4.38645 108.211 9.20621 114.213 13.7134Z" fill="#211916"/>
<path fill-rule="evenodd" clip-rule="evenodd" d="M44.04 38.8589L22.0623 39.7734L44.2855 40.3992L44.04 38.8589Z" fill="url(#paint2_linear_298_17)"/>
<path fill-rule="evenodd" clip-rule="evenodd" d="M50.2428 4.58734C50.2428 4.58734 87.3261 3.15977 94.8012 5.90324C102.275 8.64872 108.724 12.7091 108.724 12.7091L94.8233 6.7966C85.965 4.4314 66.9101 4.83282 50.2428 4.58734Z" fill="url(#paint3_linear_298_17)"/>
<path fill-rule="evenodd" clip-rule="evenodd" d="M44.7317 13.2665C42.0095 1.10647 34.3787 7.46565 28.3766 13.3339C35.5166 7.71112 39.9345 3.73928 44.7317 13.2665Z" fill="url(#paint4_linear_298_17)"/>
<path d="M5.92947 70.1371H0L8.058 48.8518H14.1395L22.1975 70.1371H16.268L14.8997 66.3361H7.29781L5.92947 70.1371ZM8.66615 62.3831H13.5314L11.0987 55.2374L8.66615 62.3831Z" fill="url(#paint5_linear_298_17)"/>
<path d="M37.7184 48.8518H43.1918V64.3596C43.1918 66.4882 42.7052 68.0389 41.7322 69.012C40.7794 69.9647 39.2388 70.4411 37.1103 70.4411H30.1165C27.988 70.4411 26.4372 69.9647 25.4642 69.012C24.5114 68.0389 24.035 66.4882 24.035 64.3596V48.8518H29.5084V64.3596C29.5084 65.5759 30.1165 66.1841 31.3328 66.1841H35.894C37.1103 66.1841 37.7184 65.5759 37.7184 64.3596V48.8518Z" fill="url(#paint6_linear_298_17)"/>
<path d="M58.0914 70.1371H52.6181V53.1088H46.2325V48.8518H64.477V53.1088H58.0914V70.1371Z" fill="url(#paint7_linear_298_17)"/>
<path d="M81.2047 54.6291C81.2047 53.4128 80.5966 52.8047 79.3803 52.8047H74.211C72.9947 52.8047 72.3866 53.4128 72.3866 54.6291V64.3595C72.3866 65.5758 72.9947 66.184 74.211 66.184H79.3803C80.5966 66.184 81.2047 65.5758 81.2047 64.3595V54.6291ZM86.6781 64.3595C86.6781 66.4881 86.1916 68.0388 85.2185 69.0119C84.2658 69.9646 82.7251 70.441 80.5966 70.441H72.9947C70.8662 70.441 69.3154 69.9646 68.3424 69.0119C67.3896 68.0388 66.9132 66.4881 66.9132 64.3595V54.6291C66.9132 52.5006 67.3896 50.9599 68.3424 50.0072C69.3154 49.0341 70.8662 48.5476 72.9947 48.5476H80.5966C82.7251 48.5476 84.2658 49.0341 85.2185 50.0072C86.1916 50.9599 86.6781 52.5006 86.6781 54.6291V64.3595Z" fill="url(#paint8_linear_298_17)"/>
<path d="M112.533 48.8518C114.824 48.8518 116.557 49.4498 117.732 50.6458C118.929 51.8216 119.527 53.5548 119.527 55.8455V63.1433C119.527 65.434 118.929 67.1774 117.732 68.3734C116.557 69.5492 114.824 70.1371 112.533 70.1371H100.674V48.8518H112.533ZM114.053 55.8455C114.053 54.0211 113.141 53.1088 111.317 53.1088H106.147V65.88H111.317C113.141 65.88 114.053 64.9678 114.053 63.1433V55.8455Z" fill="black"/>
<path d="M137.155 54.6291C137.155 53.4128 136.546 52.8047 135.33 52.8047H130.161C128.945 52.8047 128.336 53.4128 128.336 54.6291V64.3595C128.336 65.5758 128.945 66.184 130.161 66.184H135.33C136.546 66.184 137.155 65.5758 137.155 64.3595V54.6291ZM142.628 64.3595C142.628 66.4881 142.141 68.0388 141.168 69.0119C140.216 69.9646 138.675 70.441 136.546 70.441H128.945C126.816 70.441 125.265 69.9646 124.292 69.0119C123.339 68.0388 122.863 66.4881 122.863 64.3595V54.6291C122.863 52.5006 123.339 50.9599 124.292 50.0072C125.265 49.0341 126.816 48.5476 128.945 48.5476H136.546C138.675 48.5476 140.216 49.0341 141.168 50.0072C142.141 50.9599 142.628 52.5006 142.628 54.6291V64.3595Z" fill="black"/>
<path d="M163.015 69.833C158.495 70.2384 154.744 70.4411 151.764 70.4411C149.778 70.4411 148.318 69.9749 147.386 69.0424C146.453 68.1099 145.987 66.6503 145.987 64.6637V54.9333C145.987 52.8048 146.463 51.2641 147.416 50.3113C148.389 49.3383 149.94 48.8518 152.069 48.8518H163.015V53.1088H153.285C152.069 53.1088 151.46 53.717 151.46 54.9333V64.6637C151.46 65.1299 151.592 65.505 151.856 65.7888C152.139 66.0523 152.494 66.1841 152.92 66.1841C153.346 66.1841 153.812 66.1841 154.319 66.1841C154.825 66.1638 155.353 66.1435 155.9 66.1233C156.447 66.103 156.995 66.0827 157.542 66.0624C158.109 66.0422 158.829 66.0016 159.701 65.9408C160.593 65.88 161.698 65.8091 163.015 65.728V69.833Z" fill="black"/>
<path d="M165.725 65.728C171.28 66.032 175.04 66.1841 177.006 66.1841C177.473 66.1841 177.837 66.0523 178.101 65.7888C178.385 65.505 178.527 65.1299 178.527 64.6637V61.927H171.533C169.404 61.927 167.854 61.4506 166.881 60.4979C165.928 59.5248 165.451 57.974 165.451 55.8455V54.9333C165.451 52.8048 165.928 51.2641 166.881 50.3113C167.854 49.3383 169.404 48.8518 171.533 48.8518H182.206V53.1088H172.749C171.533 53.1088 170.925 53.717 170.925 54.9333V55.5414C170.925 56.7577 171.533 57.3659 172.749 57.3659H178.223C180.209 57.3659 181.669 57.8321 182.601 58.7646C183.534 59.6971 184 61.1567 184 63.1433V64.6637C184 66.6503 183.534 68.1099 182.601 69.0424C181.669 69.9749 180.209 70.4411 178.223 70.4411C177.189 70.4411 176.094 70.4209 174.939 70.3803L172.141 70.2587C170.073 70.1573 167.935 70.0154 165.725 69.833V65.728Z" fill="black"/>
</g>
<defs>
<linearGradient id="paint0_linear_298_17" x1="42.0097" y1="14.0247" x2="26.7055" y2="15.0557" gradientUnits="userSpaceOnUse">
<stop stop-color="#55C2FF"/>
<stop offset="1" stop-color="#39A0FF"/>
</linearGradient>
<linearGradient id="paint1_linear_298_17" x1="110.836" y1="26.3442" x2="75.9714" y2="28.5972" gradientUnits="userSpaceOnUse">
<stop stop-color="#55C2FF"/>
<stop offset="1" stop-color="#39A0FF"/>
</linearGradient>
<linearGradient id="paint2_linear_298_17" x1="44.2855" y1="38.8589" x2="23.7286" y2="45.5322" gradientUnits="userSpaceOnUse">
<stop stop-color="#55C2FF"/>
<stop offset="1" stop-color="#39A0FF"/>
</linearGradient>
<linearGradient id="paint3_linear_298_17" x1="108.724" y1="4.21607" x2="50.3287" y2="13.2633" gradientUnits="userSpaceOnUse">
<stop stop-color="#55C2FF"/>
<stop offset="1" stop-color="#39A0FF"/>
</linearGradient>
<linearGradient id="paint4_linear_298_17" x1="44.7317" y1="6.33668" x2="28.0547" y2="7.21373" gradientUnits="userSpaceOnUse">
<stop stop-color="#55C2FF"/>
<stop offset="1" stop-color="#39A0FF"/>
</linearGradient>
<linearGradient id="paint5_linear_298_17" x1="22.1975" y1="48.8518" x2="-0.486954" y2="49.3841" gradientUnits="userSpaceOnUse">
<stop stop-color="#55C2FF"/>
<stop offset="1" stop-color="#39A0FF"/>
</linearGradient>
<linearGradient id="paint6_linear_298_17" x1="43.1918" y1="48.8518" x2="23.6118" y2="49.2427" gradientUnits="userSpaceOnUse">
<stop stop-color="#55C2FF"/>
<stop offset="1" stop-color="#39A0FF"/>
</linearGradient>
<linearGradient id="paint7_linear_298_17" x1="64.477" y1="48.8518" x2="45.829" y2="49.2115" gradientUnits="userSpaceOnUse">
<stop stop-color="#55C2FF"/>
<stop offset="1" stop-color="#39A0FF"/>
</linearGradient>
<linearGradient id="paint8_linear_298_17" x1="86.6781" y1="48.5476" x2="66.4768" y2="48.958" gradientUnits="userSpaceOnUse">
<stop stop-color="#55C2FF"/>
<stop offset="1" stop-color="#39A0FF"/>
</linearGradient>
<clipPath id="clip0_298_17">
<rect width="184" height="71" fill="white"/>
</clipPath>
</defs>
</svg>
